<?xml version="1.0" encoding="utf-8"?>
<!-- Generator: Adobe Illustrator 27.5.0, SVG Export Plug-In . SVG Version: 6.00 Build 0)  -->
<svg version="1.1" id="katman_1" xmlns="http://www.w3.org/2000/svg" xmlns:xlink="http://www.w3.org/1999/xlink" x="0px" y="0px"
	 viewBox="0 0 700 700" style="enable-background:new 0 0 700 700;" xml:space="preserve">
<style type="text/css">
	.st0{fill:#CCCCCC;}
</style>
<g>
	<path class="st0" d="M306.4,137.4l-154,154c-1.6,1.6-1.6,4.1,0,5.6l219.1,219.1c1.5,1.5,4.1,1.6,5.6,0l154-154
		c1.5-1.5,1.5-4.1,0-5.6L312,137.4C310.5,135.9,308,135.9,306.4,137.4L306.4,137.4z"/>
	<path class="st0" d="M473.3,458.3c-7.6,7.6-7.6,19.9,0,27.4c7.6,7.6,19.9,7.6,27.5,0c7.6-7.6,7.6-19.9,0-27.5
		C493.2,450.8,480.9,450.8,473.3,458.3L473.3,458.3z"/>
	<path class="st0" d="M244.1,109.1l-120,120c-16.5,16.5-16.5,43.4,0,59.9L396,560.9c16.5,16.5,43.4,16.5,59.9,0l120-120
		c16.5-16.5,16.5-43.4,0-59.9L304,109.1C287.5,92.6,260.6,92.6,244.1,109.1L244.1,109.1z M187.7,198c-1.5-1.5-1.5-4,0-5.6l19.7-19.7
		c1.5-1.5,4-1.5,5.6,0l0.5,0.5c1.5,1.5,1.5,4,0,5.6l-19.7,19.7c-1.5,1.5-4,1.5-5.6,0L187.7,198z M504.5,489.5
		c-9.6,9.6-25.3,9.6-35,0c-9.6-9.6-9.6-25.3,0-35c9.6-9.6,25.3-9.6,35,0C514.2,464.2,514.2,479.9,504.5,489.5L504.5,489.5z
		 M534.9,352.8c3.6,3.6,3.6,9.5,0,13.1l-154,154c-3.6,3.6-9.5,3.6-13.1,0L148.7,300.8c-3.6-3.6-3.6-9.5,0-13.1l154-154
		c3.6-3.6,9.5-3.6,13.1,0L534.9,352.8z"/>
	<path class="st0" d="M275.2,545.7c-85.8-28.9-145-108.5-147.3-199.9c-0.1-3-2.5-5.5-5.6-5.5H107c-3.1,0-5.7,2.6-5.6,5.7
		c2.4,104.8,71.4,195.9,170.9,226.8c1.3,0.4,2.1,1.7,1.9,3l-2.8,19.2c-0.3,2.1,1.8,3.8,3.8,3l65-25.9c2-0.8,2.4-3.5,0.7-4.8
		L286,524.1c-1.7-1.3-4.2-0.3-4.5,1.8l-2.6,17.6C278.7,545.2,276.9,546.3,275.2,545.7L275.2,545.7z"/>
	<path class="st0" d="M425.8,94.2l2.8-19.2c0.3-2.1-1.8-3.8-3.8-3l-65,25.9c-2,0.8-2.4,3.5-0.7,4.8l54.9,43.4
		c1.7,1.3,4.2,0.3,4.5-1.8l2.6-17.6c0.3-1.7,2-2.8,3.7-2.3c85.8,28.9,145,108.5,147.3,199.9c0.1,3,2.5,5.5,5.6,5.5H593
		c3.1,0,5.7-2.6,5.6-5.7c-2.4-104.8-71.4-195.9-170.9-226.8C426.4,96.8,425.6,95.5,425.8,94.2L425.8,94.2z"/>
	<circle class="st0" cx="487" cy="472.1" r="30.4"/>
</g>
</svg>
